<?xml version="1.0" encoding="UTF-8" standalone="no"?>
<!-- Created with Inkscape (http://www.inkscape.org/) -->

<svg
   xmlns:dc="http://purl.org/dc/elements/1.1/"
   xmlns:cc="http://creativecommons.org/ns#"
   xmlns:rdf="http://www.w3.org/1999/02/22-rdf-syntax-ns#"
   xmlns:svg="http://www.w3.org/2000/svg"
   xmlns="http://www.w3.org/2000/svg"
   xmlns:sodipodi="http://sodipodi.sourceforge.net/DTD/sodipodi-0.dtd"
   xmlns:inkscape="http://www.inkscape.org/namespaces/inkscape"
   width="103.70673mm"
   height="27.35581mm"
   viewBox="0 0 103.70673 27.35581"
   version="1.1"
   id="svg8"
   inkscape:version="0.92.4 (5da689c313, 2019-01-14)"
   sodipodi:docname="DCMotorElectricalModel.svg"
   inkscape:export-filename="D:\Facultate\2020_2021\ESDM_Course\Lectures\fig\DCMotorElectricalModel.png"
   inkscape:export-xdpi="300"
   inkscape:export-ydpi="300">
  <defs
     id="defs2">
    <marker
       inkscape:stockid="Arrow1Mend"
       orient="auto"
       refY="0"
       refX="0"
       id="Arrow1Mend"
       style="overflow:visible"
       inkscape:isstock="true">
      <path
         id="path8194"
         d="M 0,0 5,-5 -12.5,0 5,5 Z"
         style="fill:#0000fe;fill-opacity:1;fill-rule:evenodd;stroke:#0000fe;stroke-width:1.00000003pt;stroke-opacity:1"
         transform="matrix(-0.4,0,0,-0.4,-4,0)"
         inkscape:connector-curvature="0" />
    </marker>
    <marker
       inkscape:isstock="true"
       style="overflow:visible"
       id="marker8948"
       refX="0"
       refY="0"
       orient="auto"
       inkscape:stockid="Arrow1Lend">
      <path
         transform="matrix(-0.8,0,0,-0.8,-10,0)"
         style="fill:#0000fe;fill-opacity:1;fill-rule:evenodd;stroke:#0000fe;stroke-width:1.00000003pt;stroke-opacity:1"
         d="M 0,0 5,-5 -12.5,0 5,5 Z"
         id="path8946"
         inkscape:connector-curvature="0" />
    </marker>
    <inkscape:path-effect
       effect="bspline"
       id="path-effect8938"
       is_visible="true"
       weight="33.333333"
       steps="2"
       helper_size="0"
       apply_no_weight="true"
       apply_with_weight="true"
       only_selected="false" />
    <marker
       inkscape:stockid="Arrow1Lend"
       orient="auto"
       refY="0"
       refX="0"
       id="Arrow1Lend"
       style="overflow:visible"
       inkscape:isstock="true"
       inkscape:collect="always">
      <path
         id="path8188"
         d="M 0,0 5,-5 -12.5,0 5,5 Z"
         style="fill:#0000fe;fill-opacity:1;fill-rule:evenodd;stroke:#0000fe;stroke-width:1.00000003pt;stroke-opacity:1"
         transform="matrix(-0.8,0,0,-0.8,-10,0)"
         inkscape:connector-curvature="0" />
    </marker>
    <inkscape:path-effect
       effect="bspline"
       id="path-effect8183"
       is_visible="true"
       weight="33.333333"
       steps="2"
       helper_size="0"
       apply_no_weight="true"
       apply_with_weight="true"
       only_selected="false" />
    <clipPath
       id="clipPath833"
       clipPathUnits="userSpaceOnUse">
      <path
         inkscape:connector-curvature="0"
         id="path831"
         d="M 0,0 H 595 V 841 H 0 Z" />
    </clipPath>
  </defs>
  <sodipodi:namedview
     id="base"
     pagecolor="#ffffff"
     bordercolor="#666666"
     borderopacity="1.0"
     inkscape:pageopacity="0.0"
     inkscape:pageshadow="2"
     inkscape:zoom="2.8"
     inkscape:cx="220.21454"
     inkscape:cy="3.9694055"
     inkscape:document-units="mm"
     inkscape:current-layer="layer1"
     showgrid="false"
     inkscape:window-width="1920"
     inkscape:window-height="1001"
     inkscape:window-x="-9"
     inkscape:window-y="-9"
     inkscape:window-maximized="1" />
  <metadata
     id="metadata5">
    <rdf:RDF>
      <cc:Work
         rdf:about="">
        <dc:format>image/svg+xml</dc:format>
        <dc:type
           rdf:resource="http://purl.org/dc/dcmitype/StillImage" />
        <dc:title></dc:title>
      </cc:Work>
    </rdf:RDF>
  </metadata>
  <g
     inkscape:label="Layer 1"
     inkscape:groupmode="layer"
     id="layer1"
     transform="translate(-75.36098,-57.808545)">
    <path
       style="fill:none;stroke:#0000fa;stroke-width:0.26458332px;stroke-linecap:butt;stroke-linejoin:miter;stroke-opacity:1"
       d="m 79.469492,63.883185 c 0.944941,0 1.889882,0 2.834823,0 0.251984,0 0.503968,0 0.755951,0 0.063,0 0.125992,0 0.18899,0 0.0315,0 0.06461,-0.01 0.09449,0 0.06682,0.02228 0.122171,0.07222 0.188989,0.09449 0.05976,0.01992 0.125992,0 0.188987,0 0.188989,0 0.0315,0.0315 0.09449,-0.09449 0.01992,-0.03984 0.07458,-0.05465 0.0945,-0.0945 0.01408,-0.02817 -0.01408,-0.06632 0,-0.09449 0.01992,-0.03984 0.07457,-0.05465 0.09449,-0.09449 0.01408,-0.02817 -0.01408,-0.06632 0,-0.0945 0.01992,-0.03984 0.07457,-0.05465 0.09449,-0.09449 0.02817,-0.05635 -0.02817,-0.132644 0,-0.188987 0.01992,-0.03984 0.07457,-0.05465 0.0945,-0.0945 0.01407,-0.02817 -0.02228,-0.07222 0,-0.09449 0.02228,-0.02228 0.07222,-0.02228 0.09449,0 0.02228,0.02228 -0.01408,0.06632 0,0.09449 0.313396,0.313399 -0.04454,-0.08909 0.09449,0.18899 0.01992,0.03984 0.06979,0.05743 0.09449,0.09449 0.34257,0.685136 -0.0996,-0.149408 0.18899,0.283482 0.318243,0.477367 7.93e-4,0.0021 0.09449,0.283483 0.05721,0.171622 0.08087,0.175366 0.188989,0.283482 0.0315,0.0315 0.07457,0.05465 0.09449,0.09449 0.139039,0.278077 -0.218903,-0.12441 0.09449,0.188989 0.0315,0.0315 0.063,0.063 0.0945,0.09449 0.0315,0.0315 0.05465,0.07457 0.09449,0.09449 0.02817,0.01407 0.063,0 0.09449,0 0.0315,0 0.07222,0.02228 0.0945,0 0.02228,-0.02228 -0.01408,-0.06632 0,-0.09449 0.01992,-0.03984 0.063,-0.063 0.09449,-0.09449 0,-0.063 -0.01527,-0.127873 0,-0.188989 0.01709,-0.06833 0.07222,-0.122172 0.09449,-0.188989 0.01,-0.02988 0,-0.063 0,-0.09449 0,-0.07736 -0.0204,-0.411244 0,-0.472469 0.02228,-0.06682 0.07222,-0.122171 0.09449,-0.188989 0.01225,-0.03677 -0.01466,-0.268817 0,-0.283483 0.02228,-0.02228 0.07222,-0.02228 0.0945,0 0.02228,0.02228 -0.01408,0.06632 0,0.0945 0.01992,0.03984 0.07457,0.05465 0.09449,0.09449 0.01408,0.02817 -0.01408,0.06632 0,0.09449 0.03984,0.07968 0.160817,0.104471 0.188989,0.188989 0.01992,0.05976 -0.01992,0.129225 0,0.188987 0.02817,0.08452 0.160814,0.10447 0.188987,0.188989 0.01992,0.05976 -0.01992,0.129225 0,0.188987 0.02817,0.08452 0.149146,0.109304 0.188989,0.188989 0.06517,0.130341 -0.114437,0.08452 0.09449,0.188989 0.02817,0.01408 0.06632,-0.01408 0.09449,0 0.03984,0.01992 0.05465,0.07457 0.0945,0.09449 0.02817,0.01408 0.06299,0 0.09449,0 0.0315,0 0.07222,0.02228 0.09449,0 0.02228,-0.02228 -0.01408,-0.06632 0,-0.09449 0.03984,-0.07968 0.149146,-0.109305 0.18899,-0.188989 0.01407,-0.02817 -0.0099,-0.06461 0,-0.09449 0.02228,-0.06682 0.07222,-0.122171 0.09449,-0.188989 0.02988,-0.08964 -0.02988,-0.193836 0,-0.283482 0.01408,-0.04226 0.08041,-0.05223 0.09449,-0.09449 0,-0.430164 -0.04454,-0.0054 0.0945,-0.283482 0.01873,-0.03747 -0.01931,-0.264163 0,-0.283483 0.02228,-0.02228 0.063,0 0.09449,0 0.02291,0 0.280443,-0.003 0.283483,0 0.02228,0.02228 -0.01408,0.06632 0,0.0945 0.313396,0.313397 -0.04454,-0.08909 0.09449,0.188987 0.03984,0.07968 0.149146,0.109305 0.188989,0.188989 0.01408,0.02817 -0.01408,0.06632 0,0.09449 0.216231,0.432462 -0.03917,-0.400978 0.188987,0.283483 0.01,0.02988 0,0.063 0,0.09449 0.0315,0.0315 0.07457,0.05465 0.09449,0.09449 0.01408,0.02817 -0.01408,0.06632 0,0.0945 0.01992,0.03984 0.063,0.063 0.0945,0.09449 0.05122,0.05122 0.0963,0.14084 0.188987,0.09449 0.179739,-0.08987 0.04558,-0.231246 0.0945,-0.377976 0.01408,-0.04226 0.08041,-0.05223 0.09449,-0.09449 0.04725,-0.141743 -0.04725,-0.330729 0,-0.472472 0.01408,-0.04226 0.07457,-0.05465 0.09449,-0.09449 0.01873,-0.03747 -0.01931,-0.264163 0,-0.283483 0.02228,-0.02228 0.07222,-0.02228 0.09449,0 0.02228,0.02228 -0.01408,0.06632 0,0.0945 0.01992,0.03984 0.06979,0.05743 0.0945,0.09449 0.03907,0.0586 0.05542,0.130384 0.09449,0.188986 0.04942,0.07413 0.149145,0.109305 0.188989,0.188989 0.01408,0.02817 0,0.063 0,0.09449 0.0315,0.0315 0.06978,0.05743 0.09449,0.0945 0.03907,0.0586 0.07222,0.122168 0.09449,0.188986 0.01,0.02988 -0.02228,0.07222 0,0.09449 0.02228,0.02228 0.07222,-0.02228 0.09449,0 0.02228,0.02228 -0.01408,0.06632 0,0.0945 0.01992,0.03984 0.07457,0.05465 0.0945,0.09449 0.01408,0.02817 -0.02228,0.07222 0,0.09449 0.0094,0.0094 0.274032,0.0094 0.283482,0 0.04455,-0.04454 -0.02817,-0.132641 0,-0.188987 0.01992,-0.03984 0.08041,-0.05224 0.09449,-0.0945 0.03984,-0.119526 -0.03984,-0.258448 0,-0.377976 0.01408,-0.04226 0.08041,-0.05223 0.09449,-0.09449 0.03984,-0.119525 -0.03984,-0.25845 0,-0.377975 0.01408,-0.04226 0.07457,-0.05465 0.09449,-0.09449 0.02817,-0.05635 -0.04454,-0.144444 0,-0.188989 0.02228,-0.02228 0.063,0 0.0945,0 0.0315,0 0.06632,-0.01408 0.09449,0 0.20893,0.104466 0.02932,0.05865 0.09449,0.188989 0.01992,0.03984 0.07457,0.05465 0.0945,0.09449 0.01408,0.02817 0,0.06299 0,0.09449 0.0315,0.063 0.05542,0.130387 0.09449,0.188989 0.02471,0.03706 0.063,0.063 0.09449,0.09449 0.0315,0.063 0.05542,0.130384 0.09449,0.18899 0.02471,0.03706 0.08041,0.05223 0.0945,0.09449 0.01992,0.05976 -0.01992,0.129225 0,0.188987 0.02817,0.08452 0.149145,0.109304 0.188986,0.188989 0.01408,0.02817 -0.01408,0.06632 0,0.09449 0.0315,0.063 0.157491,0.157491 0.188989,0.0945 0.02817,-0.05635 -0.01992,-0.129225 0,-0.188989 0.01408,-0.04226 0.08041,-0.05223 0.09449,-0.09449 0.02988,-0.08965 0,-0.188989 0,-0.283482 0,-0.157491 0,-0.314981 0,-0.472472 0,-0.06299 -0.01992,-0.129225 0,-0.188986 0.01407,-0.04226 0.04995,-0.09449 0.09449,-0.09449 0.0315,0 -0.02228,0.07222 0,0.09449 0.02228,0.02228 0.07222,-0.02228 0.0945,0 0.02228,0.02228 -0.02228,0.07222 0,0.09449 0.02228,0.02228 0.07222,-0.02228 0.09449,0 0.02228,0.02228 -0.02228,0.07222 0,0.09449 0.02228,0.02228 0.06632,-0.01408 0.09449,0 0.02461,0.0123 0.115121,0.168363 0.18899,0.0945 0.02228,-0.02228 -0.02228,-0.07222 0,-0.0945 0.04454,-0.04454 0.132643,0.02817 0.188986,0 0.03984,-0.01992 0.05465,-0.07457 0.0945,-0.09449 0.02117,-0.01058 0.355521,0 0.377976,0 0.220485,0 0.440973,0 0.661458,0 0.503968,0 1.007936,0 1.511904,0 0.02291,0 0.280445,-0.003 0.283482,0 0.02228,0.02228 -0.02228,0.07222 0,0.09449 0.02228,0.02228 0.063,0 0.0945,0 0.06698,0 0.542531,-0.01222 0.566962,0 0.03984,0.01992 0.05465,0.07457 0.0945,0.0945 0.02484,0.01241 0.328563,0 0.377976,0 0.251984,0 0.503968,0 0.755952,0 0.02291,0 0.280442,-0.003 0.283482,0 0.02228,0.02228 -0.0315,0.09449 0,0.09449 0.04455,0 0.063,-0.063 0.09449,-0.09449 0.0315,-0.0315 0.063,-0.063 0.09449,-0.0945 0.0315,-0.0315 0.063,-0.06299 0.0945,-0.09449 0.0315,0 0.07222,0.02228 0.09449,0 0.02228,-0.02228 -0.02817,-0.08041 0,-0.09449 0.188989,-0.09449 0.14174,0.04725 0.283483,0 0.06682,-0.02228 0.122171,-0.07222 0.188986,-0.09449 0.0084,-0.0028 0.639988,-0.0072 0.661459,0 0.04226,0.01408 0.063,0.063 0.0945,0.09449 0.0315,0.0315 0.06978,0.05743 0.09449,0.09449 0.03907,0.0586 0.05542,0.130387 0.09449,0.188989 0.02471,0.03706 0.06979,0.05743 0.0945,0.09449 0.03907,0.0586 0.063,0.125992 0.09449,0.18899 0.0315,0.06299 0.07741,0.120658 0.09449,0.188986 0.01527,0.06112 -0.01527,0.127873 0,0.188989 0.122666,0.490668 0.09449,-0.100877 0.09449,0.377976 0,0.100029 0.03968,0.238758 -0.09449,0.283483 -0.08964,0.02988 -0.188987,0 -0.283483,0 -0.05445,0 -0.438028,0.01722 -0.472469,0 -0.03984,-0.01992 -0.063,-0.063 -0.09449,-0.0945 -0.0315,-0.0315 -0.07457,-0.05465 -0.0945,-0.09449 -0.02817,-0.05635 0.02817,-0.132644 0,-0.188987 -0.01992,-0.03984 -0.07457,-0.05465 -0.09449,-0.0945 -0.01407,-0.02817 0,-0.063 0,-0.09449 0,-0.063 -0.01527,-0.127873 0,-0.188989 0.084,-0.335979 0.0735,-0.07349 0.283483,-0.28348 0.0498,-0.04981 0.04469,-0.139187 0.09449,-0.18899 0.0498,-0.0498 0.139187,-0.04469 0.188989,-0.09449 0.0498,-0.0498 0.04469,-0.139187 0.09449,-0.188989 0.0186,-0.0186 0.533233,-0.27505 0.566965,-0.283483 0.09167,-0.02291 0.193836,0.02988 0.283481,0 0.0668,-0.02228 0.12065,-0.07741 0.18898,-0.09449 0.0611,-0.01527 0.12599,0 0.18899,0 0.063,0 0.12923,-0.01992 0.18899,0 0.0423,0.01408 0.063,0.063 0.0945,0.09449 0.0315,0.0315 0.0698,0.05743 0.0945,0.0945 0.0391,0.0586 0.063,0.125992 0.0945,0.188987 0.0315,0.063 0.0774,0.12066 0.0945,0.188989 0.0186,0.07433 0,0.468696 0,0.566963 0,0.08019 0.0174,0.514873 0,0.566965 -0.0141,0.04226 -0.0746,0.05465 -0.0945,0.09449 -0.0141,0.02817 0.0223,0.07222 0,0.0945 -0.0445,0.04454 -0.13264,-0.02817 -0.18899,0 -0.0398,0.01992 -0.0546,0.07457 -0.0945,0.09449 -0.0194,0.0097 -0.27016,0.01333 -0.28348,0 -0.0223,-0.02228 0.0223,-0.07222 0,-0.09449 -0.0223,-0.02228 -0.0804,0.02817 -0.0945,0 -0.0282,-0.05635 0,-0.125992 0,-0.188989 0,-0.0315 -0.01,-0.06461 0,-0.09449 0.0863,-0.258815 0.31765,-0.360532 0.47247,-0.566965 0.0423,-0.05634 0.0522,-0.132643 0.0945,-0.188986 0.20435,-0.272479 0.13652,-0.122516 0.37797,-0.283483 0.0371,-0.02471 0.0574,-0.06979 0.0945,-0.0945 0.0586,-0.03907 0.13038,-0.05542 0.18899,-0.09449 0.0371,-0.02471 0.0546,-0.07457 0.0945,-0.09449 0.0301,-0.01506 0.38802,0 0.47247,0 0.0945,0 0.19384,-0.02988 0.28348,0 0.0811,0.02703 0.17452,0.240067 0.18899,0.283482 0.01,0.02988 -0.01,0.06461 0,0.09449 0.0223,0.06682 0.0807,0.119925 0.0945,0.18899 0.0183,0.09171 0,0.643823 0,0.755951 0,0.05274 0.0144,0.429215 0,0.472469 -0.0627,0.18804 -0.0882,0.0441 -0.18898,0.0945 -0.0399,0.01992 -0.0547,0.07457 -0.0945,0.09449 -0.0287,0.01437 -0.31272,0 -0.37797,0 -0.0315,0 -0.063,0 -0.0945,0 -0.0315,0 -0.0722,0.02228 -0.0945,0 -0.0223,-0.02228 0,-0.063 0,-0.09449 0,-0.0945 -0.0229,-0.191809 0,-0.283482 0.0171,-0.06833 0.063,-0.125992 0.0945,-0.188989 0.13434,-0.268672 0.0447,-0.139185 0.28348,-0.377976 0.063,-0.063 0.126,-0.125992 0.18899,-0.188989 0.0315,-0.0315 0.0574,-0.06978 0.0945,-0.09449 0.1172,-0.07814 0.26077,-0.11085 0.37797,-0.188986 0.21623,-0.144156 -0.0591,-0.0748 0.28349,-0.18899 0.0299,-0.01 0.063,0 0.0945,0 0.15749,0 0.31498,0 0.47247,0 0.18636,0 0.5133,-0.05367 0.66146,0.09449 0.0223,0.02228 -0.01,0.06461 0,0.0945 0.0223,0.06682 0.0722,0.122168 0.0945,0.188986 0.0183,0.05474 0,0.29609 0,0.377976 0,0.0315 0,0.063 0,0.0945 0,0.0315 0.0141,0.06632 0,0.09449 -0.0199,0.03984 -0.063,0.063 -0.0945,0.09449 -0.0315,0.0315 -0.0547,0.07457 -0.0945,0.09449 -0.0282,0.01408 -0.0722,-0.02228 -0.0945,0 -0.0223,0.02228 0.0223,0.07222 0,0.0945 -0.009,0.0094 -0.27403,0.0094 -0.28348,0 -0.008,-0.008 -0.0156,-0.23658 0,-0.283483 0.0223,-0.06682 0.063,-0.125992 0.0945,-0.188989 0.216,-0.432001 -0.0586,0.09767 0.28348,-0.472469 0.0362,-0.0604 0.0554,-0.130387 0.0945,-0.188989 0.0247,-0.03706 0.0698,-0.05743 0.0945,-0.09449 0.0391,-0.0586 0.0447,-0.139186 0.0945,-0.188989 0.0223,-0.02228 0.0663,0.01408 0.0945,0 0.0398,-0.01992 0.0546,-0.07457 0.0945,-0.09449 0.0282,-0.01408 0.0646,0.0099 0.0945,0 0.0668,-0.02228 0.12217,-0.07222 0.18898,-0.09449 0.0598,-0.01992 0.126,0 0.18899,0 0.063,0 0.12788,-0.01527 0.18899,0 0.19537,0.04884 0.33997,0.245475 0.47247,0.377975 0.0961,0.09605 0.15085,0.130929 0.18899,0.283483 0.0153,0.06111 0,0.125992 0,0.188987 0,0.063 0,0.125991 0,0.188989 0,0.06525 0.0144,0.349247 0,0.377976 -0.10446,0.20893 -0.0587,0.02932 -0.18899,0.09449 -0.0398,0.01992 -0.0547,0.07457 -0.0945,0.0945 -0.0194,0.0097 -0.27016,0.01333 -0.28348,0 -0.0223,-0.02228 0,-0.063 0,-0.0945 0,-0.0315 0,-0.063 0,-0.09449 0,-0.125992 -0.0247,-0.254432 0,-0.377976 0.0626,-0.313225 0.24997,-0.627946 0.47247,-0.850448 0.0315,-0.0315 0.063,-0.06299 0.0945,-0.09449 0.0315,-0.0315 0.0547,-0.07457 0.0945,-0.09449 0.0282,-0.01408 0.0663,0.01407 0.0945,0 0.0398,-0.01992 0.0522,-0.08041 0.0945,-0.09449 0.0179,-0.006 0.54907,-0.006 0.56697,0 0.0423,0.01408 0.0574,0.06978 0.0945,0.09449 0.0586,0.03907 0.13039,0.05542 0.18899,0.09449 0.0371,0.02471 0.063,0.063 0.0945,0.09449 0.0315,0.0315 0.0804,0.05224 0.0945,0.0945 0.0199,0.05976 -0.0199,0.129225 0,0.188987 0.0141,0.04226 0.0746,0.05465 0.0945,0.0945 0.0144,0.02876 0,0.240924 0,0.28348 0,0.0315 0.0223,0.07222 0,0.0945 -0.0223,0.02228 -0.0646,-0.01 -0.0945,0 -0.41026,0.136753 0.0649,0.09449 -0.47247,0.09449 0.0997,0.598019 0.0945,0.375361 0.0945,0.661444 0,0.0315 0.0223,0.07222 0,0.09449 -0.0223,0.02227 -0.063,0 -0.0945,0 -0.0315,0 -0.0663,0.01409 -0.0945,0 -0.0398,-0.01992 -0.0547,-0.07457 -0.0945,-0.09449 -0.0282,-0.01409 -0.0722,0.02227 -0.0945,0 -0.0223,-0.02227 0.0223,-0.07222 0,-0.09449 -0.0446,-0.04454 -0.14445,0.04454 -0.18899,0 -0.0133,-0.01333 -0.01,-0.264099 0,-0.283482 0.0199,-0.03984 0.063,-0.063 0.0945,-0.0945 0.2378,-0.237794 -0.1107,0.08253 0.378,-0.188973 0.19855,-0.110305 0.36974,-0.265296 0.56694,-0.377991 0.0347,-0.01984 0.32088,0 0.37798,0 0.25198,0 0.50397,0 0.75595,0 0.0315,0 0.0722,-0.02227 0.0945,0 0.0223,0.02227 -0.0223,0.07222 0,0.09449 0.0223,0.02227 0.063,0 0.0945,0 0.0315,0 0.063,0 0.0945,0 1.41741,0 2.83482,0 4.25224,0 0.50396,0 1.00793,0 1.5119,0 0.15749,0 0.31498,0 0.47247,0 0.0315,0 0.063,0 0.0945,0 0.0315,0 0.0663,0.01409 0.0945,0 0.0398,-0.01992 0.0546,-0.07457 0.0945,-0.09449 0.0564,-0.02817 0.14445,0.04454 0.18899,0 0.0223,-0.02227 -0.0223,-0.07222 0,-0.09449 0.004,-0.0043 0.42792,0 0.47247,0 0.063,0 0.12599,0 0.18899,0 0.0315,0 0.0945,-0.0315 0.0945,0 0,0.0315 -0.0663,-0.01409 -0.0945,0 -0.0398,0.01992 -0.063,0.063 -0.0945,0.09449 0.0945,0.15749 0.2111,0.303661 0.28344,0.472471 0.0248,0.0579 0,0.125993 0,0.188989 0,0.188988 0,0.377976 0,0.566964 0,0.346478 0,0.692956 0,1.039434 0,0.15749 0.0259,0.317123 0,0.472471 -0.0164,0.09825 -0.0781,0.185231 -0.0945,0.283482 -0.0155,0.09321 0,0.188988 0,0.283482 0,0.220486 0,0.440972 0,0.661458 0,0.409474 0,0.818949 0,1.228423 0,0.07736 -0.0204,0.411246 0,0.47247 0.0223,0.06682 0.0774,0.120659 0.0945,0.188988 0.0184,0.07372 0,0.456674 0,0.566964 0,0.472471 0,0.944941 0,1.417411 0,0.166325 -0.0782,0.188988 0.0945,0.188988"
       id="path8073"
       inkscape:connector-curvature="0" />
    <path
       style="fill:none;stroke:#0000ff;stroke-width:0.26458332px;stroke-linecap:butt;stroke-linejoin:miter;stroke-opacity:1"
       d="m 113.10937,72.104164 c 0.28197,-0.061 0.49883,0.152258 0.75596,0.18899 0.12472,0.01781 0.25198,0 0.37797,0 0.91345,0 1.82689,0 2.74033,0 0.0945,0 0.18899,0 0.28348,0 0.063,0 0.12788,-0.01527 0.18899,0 0.0683,0.01709 0.12066,0.07741 0.18899,0.09449 0.0611,0.01527 0.12599,0 0.18899,0 0.15749,0 0.31498,0 0.47247,0 0.063,0 0.12599,0 0.18898,0 0.0315,0 0.0663,-0.01408 0.0945,0 0.0398,0.01992 0.0546,0.07457 0.0945,0.0945 0.0282,0.01408 0.0945,-0.0315 0.0945,0 0,0.0315 -0.063,0 -0.0945,0"
       id="path8075"
       inkscape:connector-curvature="0" />
    <path
       style="fill:none;stroke:#0000fa;stroke-width:0.26458332px;stroke-linecap:butt;stroke-linejoin:miter;stroke-opacity:1"
       d="m 116.03869,74.372022 c 0.13523,0.368776 0.0945,0.749554 0.0945,1.13393 0,0.063 -0.0103,0.126849 0,0.188987 0.0213,0.128103 0.0761,0.249412 0.0945,0.377975 0.0134,0.09355 0,0.18899 0,0.283483 0,0.125992 0,0.251984 0,0.377976 0,0.661458 0,1.322916 0,1.984375 0,0.251984 0,0.50397 0,0.755954 0,0.063 0.0123,0.127214 0,0.188987 -0.0391,0.195341 -0.15624,0.370464 -0.18899,0.566965 -0.0155,0.09321 0.0134,0.189936 0,0.283482 0.009,0.239265 -0.15129,0.435269 -0.18899,0.661458 -0.0155,0.09321 0,0.188987 0,0.283483 0,0.346477 0,0.692954 0,1.039434 0,0.157491 0,0.314979 0,0.472469 0,0.063 0,0.125992 0,0.188989 0,0.0315 0.0315,0.09449 0,0.09449 -0.0315,0 0,-0.063 0,-0.09449 0,-0.0315 0,-0.063 0,-0.09449"
       id="path8079"
       inkscape:connector-curvature="0" />
    <path
       style="fill:none;stroke:#0000fa;stroke-width:0.26458332px;stroke-linecap:butt;stroke-linejoin:miter;stroke-opacity:1"
       d="m 116.13323,63.977675 c 0.53373,0.118166 1.06663,0.0945 1.60635,0.0945 0.0945,0 0.18899,0 0.28348,0 0.063,0 0.12722,-0.01236 0.18899,0 0.0977,0.01953 0.18523,0.07812 0.28348,0.09449 0.0932,0.01553 0.18899,0 0.28349,0 0.0945,0 0.18899,0 0.28348,0 0.34648,0 0.69296,0 1.03943,0 0.97644,0 1.95288,0 2.92932,0 0.47247,0 0.94494,0 1.41741,0 0.11213,0 0.66424,0.01834 0.75595,0 0.0691,-0.01381 0.12066,-0.07741 0.18899,-0.09449 0.0611,-0.01527 0.12599,0 0.18899,0 0.063,0 0.12599,0 0.18899,0 0.18898,0 0.37797,0 0.56696,0 0.66146,0 1.32292,0 1.98438,0 0.72445,0 1.4489,0 2.17336,0 0.0945,0 0.18899,0 0.28348,0 0.0315,0 0.0722,-0.02228 0.0945,0 0.0445,0.04454 -0.0199,0.129225 0,0.188989 0.0223,0.06682 0.0722,0.122169 0.0945,0.188987 0.0299,0.08965 -0.0229,0.19181 0,0.283483 0.0171,0.06833 0.0774,0.12066 0.0945,0.188989 0.0306,0.122229 -0.0306,0.255746 0,0.377976 0.0171,0.06833 0.0774,0.120658 0.0945,0.188986 0.0382,0.152789 -0.0309,0.31804 0,0.472472 0.0138,0.06906 0.0774,0.120658 0.0945,0.188986 0.0382,0.152789 -0.0309,0.31804 0,0.472472 0.0138,0.06906 0.0774,0.120658 0.0945,0.188987 0.0153,0.06112 -0.0153,0.127873 0,0.188989 0.0171,0.06833 0.0774,0.120658 0.0945,0.188989 0.0153,0.06111 -0.0153,0.127871 0,0.188987 0.0171,0.06833 0.0774,0.12066 0.0945,0.188989 0.0153,0.06111 0,0.125992 0,0.188987 0,0.188989 0,0.377975 0,0.566965 0,0.03735 0.0202,0.432112 0,0.472469 -0.0199,0.03984 -0.0746,0.05465 -0.0945,0.0945 -0.0303,0.06055 0.0293,0.50828 0,0.566962 -0.0199,0.03984 -0.0804,0.05224 -0.0945,0.0945 -0.0144,0.04325 0,0.419727 0,0.472469 0,0.377976 0,0.755952 0,1.13393 0,0.220485 0,0.440971 0,0.661459 0,0.0315 0,0.06299 0,0.09449 0,0.0315 -0.0223,0.07222 0,0.09449 0.0223,0.02228 0.0722,0.02228 0.0945,0 0.0223,-0.02228 0,-0.063 0,-0.09449"
       id="path8081"
       inkscape:connector-curvature="0" />
    <path
       style="fill:none;stroke:#0000ff;stroke-width:0.26458332px;stroke-linecap:butt;stroke-linejoin:miter;stroke-opacity:1"
       d="m 128.88988,72.293154 c 0.34284,0.0326 0.69719,-0.03803 1.03943,0 0.15963,0.01773 0.31285,0.07676 0.47247,0.09449 0.12523,0.01392 0.25199,0 0.37798,0 0.15749,0 0.31498,0 0.47247,0 0.81895,0 1.6379,0 2.45684,0 0.25199,0 0.50398,0 0.75596,0 0.0315,0 0.063,0 0.0945,0 0.0315,0 0.11677,-0.02228 0.0945,0 -0.12984,0.129839 -0.31217,0.0945 -0.47247,0.0945"
       id="path8083"
       inkscape:connector-curvature="0" />
    <path
       style="fill:none;stroke:#0000fa;stroke-width:0.26458332px;stroke-linecap:butt;stroke-linejoin:miter;stroke-opacity:1"
       d="m 129.36235,74.277529 c 0.88195,0 1.76389,0 2.64583,0 0.18899,0 0.37798,0 0.56697,0 0.0225,0 0.35679,-0.01058 0.37797,0 0.0399,0.01992 0.0547,0.07457 0.0945,0.09449 0.0282,0.01408 0.063,0 0.0945,0 0.0315,0 0.063,0 0.0945,0 0.15749,0 0.31498,0 0.47246,0 0.0347,0 0.37418,-0.0038 0.37798,0 0.0223,0.02228 0.0315,0.0945 0,0.0945 -0.0445,0 -0.13904,-0.0945 -0.0945,-0.0945 0.0704,0 0.12599,0.063 0.18899,0.0945"
       id="path8087"
       inkscape:connector-curvature="0" />
    <path
       style="fill:none;stroke:#0000fa;stroke-width:0.26458332px;stroke-linecap:butt;stroke-linejoin:miter;stroke-opacity:1"
       d="m 113.34069,73.991844 c 0.28197,-0.061 0.49883,0.152258 0.75596,0.18899 0.12472,0.01781 0.25198,0 0.37797,0 0.91345,0 1.82689,0 2.74033,0 0.0945,0 0.18899,0 0.28348,0 0.063,0 0.12788,-0.01527 0.18899,0 0.0683,0.01709 0.12066,0.07741 0.18899,0.09449 0.0611,0.01527 0.12599,0 0.18899,0 0.15749,0 0.31498,0 0.47247,0 0.063,0 0.12599,0 0.18898,0 0.0315,0 0.0663,-0.01408 0.0945,0 0.0398,0.01992 0.0546,0.07457 0.0945,0.0945 0.0282,0.01408 0.0945,-0.0315 0.0945,0 0,0.0315 -0.063,0 -0.0945,0"
       id="path8075-4"
       inkscape:connector-curvature="0" />
    <path
       style="fill:none;stroke:#0000fa;stroke-width:0.26458332px;stroke-linecap:butt;stroke-linejoin:miter;stroke-opacity:1"
       d="m 130.77976,63.883185 c 1.03944,0 2.07887,0 3.1183,0 0.62996,0 1.25992,0 1.88989,0 0.22048,0 0.44097,0 0.66145,0 0.063,0 0.126,0 0.18899,0 0.0315,0 0.0646,-0.01 0.0945,0 0.0668,0.02228 0.12217,0.07222 0.18898,0.09449 0.0612,0.0204 0.39511,0 0.47248,0 0.34647,0 0.69295,0 1.03943,0 0.56696,0 1.13393,0 1.70089,0 0.22049,0 0.44097,0 0.66146,0 0.063,0 0.12787,-0.01527 0.18899,0 0.0683,0.01709 0.12217,0.07222 0.18899,0.09449 0.0299,0.0099 0.063,0 0.0945,0 0.15749,0 0.31498,0 0.47247,0 0.063,0 0.12787,-0.01527 0.18899,0 0.0683,0.01709 0.12066,0.07741 0.18899,0.09449 0.0611,0.01527 0.12599,0 0.18898,0 0.063,0 0.126,0 0.18899,0 0.18899,0 0.37798,0 0.56697,0 0.62996,0 1.25992,0 1.88988,0 0.18899,0 0.37797,0 0.56696,0 0.0426,0 0.25473,-0.01437 0.28348,0 0.23354,0.116768 -0.0326,0.0945 0.18899,0.0945 0.28348,0 0.56697,0 0.85045,0 0.063,0 0.12599,0 0.18899,0 0.0315,0 0.0945,-0.0315 0.0945,0 0,0.0315 -0.063,0 -0.0945,0 -0.063,0 -0.12599,0 -0.18899,0"
       id="path8106"
       inkscape:connector-curvature="0" />
    <path
       style="fill:none;stroke:#0000ff;stroke-width:0.26458332px;stroke-linecap:butt;stroke-linejoin:miter;stroke-opacity:1"
       d="m 146.84376,64.261155 c -1e-5,0.503968 -1e-5,1.007938 -1e-5,1.511909 0,0.629959 0,1.259922 0,1.889881 0,0.143315 0.0211,0.629082 0,0.755952 -0.0164,0.09825 -0.075,0.185812 -0.0945,0.283483 -0.0247,0.123544 0,0.251983 0,0.377975 0,0.314981 0,0.62996 0,0.944941 0,0.472472 0,0.944941 0,1.41741 0,0.02291 -0.003,0.280445 0,0.283483 0.0223,0.02228 0.0722,-0.02228 0.0945,0 0.0223,0.02228 0.0315,0.0945 0,0.0945 -0.0315,0 0,-0.063 0,-0.0945"
       id="path8108"
       inkscape:connector-curvature="0" />
    <path
       style="fill:none;stroke:#0000fa;stroke-width:0.26458332px;stroke-linecap:butt;stroke-linejoin:miter;stroke-opacity:1"
       d="m 146.84375,71.726189 c 0.15749,0.251983 0.31498,0.503967 0.47247,0.755954 0.0315,0.0315 0.0698,0.05743 0.0945,0.09449 0.0391,0.0586 0.0554,0.130384 0.0945,0.188987 0.0247,0.03706 0.0698,0.05743 0.0945,0.0945 0.22883,0.343244 -0.0277,0.06682 0.18899,0.283482 0.0315,0.0315 0.0746,0.05465 0.0945,0.09449 0.0141,0.02817 -0.0223,0.07222 0,0.09449 0.0223,0.02228 0.0722,-0.02228 0.0945,0 0.0223,0.02228 0.0223,0.07222 0,0.09449 -0.004,0.0038 -0.34328,0 -0.37798,0 -0.56696,0 -1.13393,0 -1.70089,0 -0.0229,0 -0.28045,-0.003 -0.28349,0 -0.0223,0.02228 -0.0223,0.07222 0,0.0945 0.0223,0.02228 0.0722,-0.02228 0.0945,0 0.0223,0.02228 -0.0223,0.07222 0,0.09449 0.0223,0.02228 0.0663,-0.01408 0.0945,0 0.0797,0.03984 0.10931,0.149146 0.18899,0.18899 0.0282,0.01408 0.0646,-0.0099 0.0945,0 0.34256,0.114188 0.0673,0.04483 0.28348,0.188986 0.1172,0.07814 0.26077,0.110853 0.37797,0.188989 0.0371,0.02471 0.0574,0.06978 0.0945,0.09449 0.0586,0.03907 0.12599,0.06299 0.18899,0.09449 0.063,0.0315 0.12217,0.07222 0.18898,0.0945 0.0299,0.0099 0.0663,-0.01408 0.0945,0 0.0797,0.03984 0.1093,0.149145 0.18899,0.188986 0.0282,0.01408 0.0945,-0.0315 0.0945,0 0,0.0315 -0.063,0 -0.0945,0 -0.126,0 -0.25199,0 -0.37798,0 -0.40947,0 -0.81895,0 -1.22842,0 -0.0315,0 -0.063,0 -0.0945,0 -0.0315,0 -0.0722,-0.02228 -0.0945,0 -0.0133,0.01334 -0.01,0.2641 0,0.283483 0.0195,0.0391 0.24343,0.256781 0.28348,0.283482 0.0586,0.03907 0.13039,0.05542 0.18899,0.09449 0.0371,0.02471 0.063,0.063 0.0945,0.09449 0.0945,0.0945 0.18899,0.188989 0.28349,0.283483 0.0315,0.0315 0.0547,0.07457 0.0945,0.0945 0.0282,0.01408 0.0663,-0.01408 0.0945,0 0.0399,0.01992 0.0547,0.07457 0.0945,0.09449 0.0282,0.01408 0.0722,-0.02228 0.0945,0 0.0223,0.02228 -0.0223,0.07222 0,0.09449 0.0223,0.02228 0.0945,-0.0315 0.0945,0 0,0.0315 -0.063,0 -0.0945,0 -0.063,0 -0.12599,0 -0.18899,0 -0.31498,0 -0.62995,0 -0.94494,0 -0.0315,0 -0.063,0 -0.0945,0 -0.0315,0 -0.0722,-0.02228 -0.0945,0 -0.009,0.0094 -0.009,0.274034 0,0.283483 0.0223,0.02228 0.0663,-0.01408 0.0945,0 0.0398,0.01992 0.063,0.06299 0.0945,0.09449 0.0738,0.07381 0.20195,0.229124 0.28349,0.283482 0.0586,0.03907 0.13038,0.05542 0.18898,0.09449 0.0371,0.02471 0.0574,0.06979 0.0945,0.0945 0.14533,0.09689 0.23265,0.0921 0.37797,0.188986 0.086,0.05735 0.19973,0.241607 0.28349,0.283483 0.0282,0.01408 0.0663,-0.01408 0.0945,0 0.0398,0.01992 0.063,0.063 0.0945,0.09449 0.0315,0.0315 0.0945,0.04995 0.0945,0.0945 0,0.0315 -0.063,0 -0.0945,0 -0.0945,0 -0.18898,0 -0.28348,0 -0.37797,0 -0.75595,0 -1.13393,0 -0.0315,0 -0.063,0 -0.0945,0 -0.0315,0 -0.0722,-0.02228 -0.0945,0 -0.0223,0.02228 0,0.063 0,0.09449 0,0.04256 -0.0144,0.254725 0,0.283483 0.10447,0.208931 0.0587,0.02932 0.18899,0.09449 0.0398,0.01992 0.063,0.063 0.0945,0.09449 0.063,0 0.12787,-0.01527 0.18899,0 0.0683,0.01709 0.12065,0.07741 0.18898,0.0945 0.0611,0.01527 0.12722,-0.01236 0.18899,0 0.0977,0.01953 0.18581,0.07496 0.28348,0.09449 0.0618,0.01236 0.12788,-0.01527 0.18899,0 0.0683,0.01709 0.12217,0.07222 0.18899,0.09449 0.085,0.02835 0.19844,-0.02835 0.28348,0 0.0423,0.01408 0.0547,0.07457 0.0945,0.0945 0.25198,0 -0.0315,-0.0315 0.0945,0.09449 0.0223,0.02228 0.0945,-0.0315 0.0945,0 0,0.03955 -0.11506,-0.02466 -0.18899,0 -0.0668,0.02228 -0.12217,0.07222 -0.18899,0.09449 -0.0475,0.01585 -0.54228,0 -0.56697,0 -0.28348,0 -0.56696,0 -0.85044,0 -0.0229,0 -0.28045,-0.003 -0.28349,0 -0.0223,0.02228 0,0.063 0,0.09449 0,0.0315 -0.0223,0.07222 0,0.0945 0.0223,0.02228 0.0663,-0.01408 0.0945,0 0.0722,0.03609 0.2195,0.262151 0.28348,0.283482 0.0598,0.01992 0.12923,-0.01992 0.18899,0 0.0423,0.01408 0.0522,0.08041 0.0945,0.09449 0.0598,0.01992 0.12788,-0.01527 0.18899,0 0.0683,0.01709 0.12217,0.07222 0.18899,0.09449 0.0368,0.01225 0.26882,-0.01466 0.28348,0 0.0223,0.02228 0.0315,0.09449 0,0.09449 -0.0315,0 0,-0.125992 0,-0.09449 0,0.063 0.0153,0.127873 0,0.188989 -0.0171,0.06833 -0.0774,0.120658 -0.0945,0.188987 -0.0153,0.06112 0.0199,0.129225 0,0.188989 -0.0141,0.04226 -0.0804,0.05223 -0.0945,0.09449 -0.0398,0.119526 0.0306,0.255746 0,0.377976 -0.0171,0.06833 -0.0774,0.12066 -0.0945,0.188989 -0.0306,0.12223 0.0306,0.255746 0,0.377976 -0.0171,0.06833 -0.0807,0.119925 -0.0945,0.188989 -0.0444,0.221962 0.0444,0.628481 0,0.850445 -0.0138,0.06906 -0.0774,0.120661 -0.0945,0.188989 -0.0153,0.06111 0,0.125992 0,0.188987 0,0.188989 0,0.377976 0,0.566965 0,0.04941 -0.0124,0.353129 0,0.377976 0.0199,0.03984 0.0746,0.05465 0.0945,0.09449 0.0282,0.05635 -0.0446,0.144444 0,0.188989 0.12599,0.125992 0.0945,-0.15749 0.0945,0.09449"
       id="path8110"
       inkscape:connector-curvature="0" />
    <path
       style="fill:none;stroke:#0000fa;stroke-width:0.26458332px;stroke-linecap:butt;stroke-linejoin:miter;stroke-opacity:1"
       d="m 79.091516,84.010414 c 0.377976,0 0.755952,0 1.133931,0 0.06299,0 0.127873,0.01527 0.188986,0 0.06833,-0.01709 0.120661,-0.07741 0.188989,-0.09449 0.06111,-0.01527 0.125992,0 0.188987,0 0.125992,0 0.251984,0 0.377976,0 0.063,0 0.127217,0.01236 0.188989,0 0.09767,-0.01953 0.185812,-0.07496 0.283482,-0.09449 0.06177,-0.01236 0.125992,0 0.188987,0 0.125995,0 0.251987,0 0.377979,0 0.06299,0 0.127873,0.01527 0.188986,0 0.06833,-0.01709 0.122171,-0.07222 0.188989,-0.09449 0.06111,-0.02037 0.369293,0 0.472469,0 0.34648,0 0.692957,0 1.039435,0 0.377975,0 0.755954,0 1.13393,0 0.125992,0 0.252957,0.01564 0.377975,0 0.128866,-0.01611 0.248902,-0.08015 0.377976,-0.0945 0.156528,-0.01738 0.314981,0 0.472469,0 0.283483,0 0.566965,0 0.850448,0 0.125992,0 0.252754,0.01392 0.377976,0 0.159628,-0.01773 0.312843,-0.07676 0.472471,-0.09449 0.12522,-0.01392 0.251984,0 0.377976,0 0.157491,0 0.314979,0 0.472469,0 0.503968,0 1.007938,0 1.511906,0 0.377976,0 0.755952,0 1.133928,0 0.125992,0 0.252957,-0.01564 0.377975,0 1.000414,0.125053 -0.237164,0.09449 0.755955,0.09449 0.629959,0 1.259919,0 1.889879,0 0.220488,0 0.440973,0 0.661458,0 0.125992,0 0.253251,-0.01781 0.377976,0 0.0986,0.01408 0.185232,0.07812 0.283482,0.0945 0.09321,0.01553 0.18899,0 0.283483,0 0.220488,0 0.440973,0 0.661458,0 0.503968,0 1.007938,0 1.511906,0 1.606403,0 3.212793,0 4.819193,0 4.91369,0 9.82738,0 14.74107,0 2.11037,0 4.22074,0 6.33111,0 0.78745,0 1.5749,0 2.36235,0 0.22048,0 0.44097,0 0.66145,0 0.0945,0 0.19028,-0.01553 0.28349,0 0.0982,0.01638 0.18523,0.07812 0.28348,0.09449 0.0932,0.01553 0.18899,0 0.28348,0 0.18899,0 0.37798,0 0.56697,0 0.66146,0 1.32291,0 1.98437,0 0.31498,0 0.62996,0 0.94494,0 0.0945,0 0.18994,-0.01336 0.28348,0 0.12857,0.01836 0.24941,0.07613 0.37798,0.09449 0.0935,0.01336 0.18899,0 0.28348,0 0.12599,0 0.25198,0 0.37798,0 0.47247,0 0.94494,0 1.41741,0 0.12599,0 0.25325,-0.01781 0.37798,0 0.0986,0.01408 0.18487,0.08041 0.28348,0.09449 0.12472,0.01783 0.25198,0 0.37797,0 0.37798,0 0.75595,0 1.13393,0 0.12599,0 0.25296,-0.01564 0.37798,0 0.12886,0.01611 0.24911,0.07839 0.37798,0.0945 0.12501,0.01564 0.25198,0 0.37797,0 0.40948,0 0.81895,0 1.22842,0 0.12599,0 0.25325,-0.01781 0.37798,0 0.0986,0.01408 0.18488,0.08041 0.28348,0.09449 0.12473,0.01781 0.25198,0 0.37798,0 0.31498,0 0.62996,0 0.94494,0 0.31498,0 0.62996,0 0.94494,0 0.0945,0 0.18899,0 0.28348,0 0.0945,0 0.19082,-0.01852 0.28348,0 0.0691,0.01381 0.11993,0.08068 0.18899,0.09449 0.0927,0.01852 0.18899,0 0.28348,0 0.18899,0 0.37798,0 0.56697,0 0.56696,0 1.13393,0 1.70089,0 0.47247,0 0.94494,0 1.41741,0 0.0445,0 0.46819,-0.0043 0.47247,0 0.0223,0.02228 0.0223,0.07222 0,0.0945 -0.009,0.0089 -0.28261,0.0024 -0.28348,0 -0.0912,-0.243224 -0.12594,-0.504005 -0.18891,-0.756007"
       id="path8112"
       inkscape:connector-curvature="0" />
    <path
       style="fill:none;stroke:#0000fa;stroke-width:0.26458332px;stroke-linecap:butt;stroke-linejoin:miter;stroke-opacity:1"
       d="m 131.8192,74.183035 c -0.21734,0.0341 -0.049,0.430361 -0.0945,0.566963 -0.0223,0.06682 -0.0722,0.122171 -0.0945,0.188989 -0.01,0.02988 0.0141,0.06632 0,0.09449 -0.0199,0.03984 -0.0804,0.05224 -0.0945,0.0945 -0.0199,0.05976 0.0153,0.127871 0,0.188987 -0.0171,0.06833 -0.0722,0.122171 -0.0945,0.188989 -0.0283,0.08505 0.0284,0.198437 0,0.283483 -0.0141,0.04226 -0.0804,0.05223 -0.0945,0.09449 -0.0398,0.119525 0.0306,0.255746 0,0.377976 -0.0171,0.06833 -0.0722,0.122171 -0.0945,0.188989 -0.01,0.02988 0,0.06299 0,0.09449 0,0.063 0,0.125992 0,0.188987 0,0.125992 0,0.251984 0,0.377978 0,0.09449 0.0299,0.193837 0,0.28348 -0.0141,0.04226 -0.0746,0.05465 -0.0945,0.0945 -0.0287,0.05738 0.0287,0.509585 0,0.566962 -0.0199,0.03984 -0.0746,0.05465 -0.0945,0.0945 -0.0141,0.02817 0,0.063 0,0.09449 0,0.0315 0,0.06299 0,0.09449 0,0.15749 0,0.314981 0,0.472472 0,0.0315 0.0141,0.06632 0,0.09449 -0.0199,0.03984 -0.0746,0.05465 -0.0945,0.09449 -0.0144,0.02876 0,0.240927 0,0.283483 0,0.188989 0,0.377976 0,0.566965 0,0.346477 0,0.692957 0,1.039434 0,0.06573 -0.0171,0.438298 0,0.472469 0.0199,0.03984 0.0746,0.05465 0.0945,0.0945 0.0141,0.02817 0,0.063 0,0.09449 0,0.0315 0,0.063 0,0.09449 0,0.18899 0,0.377976 0,0.566966 0,0.04941 -0.0124,0.353128 0,0.377975 0.0199,0.03984 0.0746,0.05465 0.0945,0.09449 0.0282,0.05634 -0.0445,0.144444 0,0.188989 0.0223,0.02228 0.0722,-0.02228 0.0945,0 0.004,0.0038 0,0.343273 0,0.377976 0,0.0315 0,0.063 0,0.09449 0,0.0315 0.0315,0.0945 0,0.0945 -0.0315,0 -0.0223,-0.116769 0,-0.0945 0.22292,0.222919 -0.0559,0.283482 0.18899,0.283482"
       id="path8114"
       inkscape:connector-curvature="0" />
    <text
       xml:space="preserve"
       style="font-style:normal;font-weight:normal;font-size:7.76111126px;line-height:1.25;font-family:sans-serif;letter-spacing:0px;word-spacing:0px;fill:#000000;fill-opacity:1;stroke:none;stroke-width:0.26458332"
       x="148.92262"
       y="77.679306"
       id="text8118"><tspan
         sodipodi:role="line"
         id="tspan8116"
         x="148.92262"
         y="77.679306"
         style="font-size:2.11666656px;stroke-width:0.26458332">Friction</tspan></text>
    <text
       xml:space="preserve"
       style="font-style:normal;font-weight:normal;font-size:2.11666656px;line-height:1.25;font-family:sans-serif;letter-spacing:0px;word-spacing:0px;fill:#000000;fill-opacity:1;stroke:none;stroke-width:0.26458332"
       x="133.14212"
       y="76.734375"
       id="text8122"><tspan
         sodipodi:role="line"
         id="tspan8120"
         x="133.14212"
         y="76.734375"
         style="stroke-width:0.26458332">Inertia</tspan></text>
    <text
       xml:space="preserve"
       style="font-style:normal;font-weight:normal;font-size:2.11666656px;line-height:1.25;font-family:sans-serif;letter-spacing:0px;word-spacing:0px;fill:#000000;fill-opacity:1;stroke:none;stroke-width:0.26458332"
       x="117.5506"
       y="76.45089"
       id="text8126"><tspan
         sodipodi:role="line"
         id="tspan8124"
         x="117.5506"
         y="76.45089"
         style="stroke-width:0.26458332">Motor</tspan></text>
    <path
       style="fill:none;stroke:#000000;stroke-width:0.26458332px;stroke-linecap:butt;stroke-linejoin:miter;stroke-opacity:1"
       d="m 115.37723,67.09598 c 0.0315,0.125992 0.0463,0.257395 0.0945,0.377976 0.0165,0.04136 0.0746,0.05465 0.0945,0.0945 0.0282,0.05635 -0.0199,0.129225 0,0.188987 0.0223,0.06682 0.0722,0.122171 0.0945,0.188989 0.01,0.02988 -0.01,0.06461 0,0.09449 0.0223,0.06682 0.0722,0.122172 0.0945,0.188989 0.01,0.02988 -0.0141,0.06632 0,0.09449 0.0199,0.03984 0.0746,0.05465 0.0945,0.09449 0.0141,0.02817 -0.0141,0.06632 0,0.0945 0.0199,0.03984 0.0746,0.05465 0.0945,0.09449 0.0141,0.02817 -0.0223,0.07222 0,0.09449 0.0223,0.02228 0.0722,-0.02228 0.0945,0 0.0445,0.04454 -0.0282,0.132643 0,0.188989 0.0199,0.03984 0.0746,0.05465 0.0945,0.09449 0.0282,0.05635 -0.0445,0.144444 0,0.188989 0.0223,0.02228 0.0722,-0.02228 0.0945,0 0.0223,0.02228 -0.0223,0.07222 0,0.09449 0.0223,0.02228 0.0722,0.02228 0.0945,0 0.0223,-0.02228 0.0315,-0.09449 0,-0.09449 -0.0445,0 -0.12599,0.125992 -0.0945,0.09449 0.063,-0.063 0.12599,-0.125992 0.18899,-0.18899 0.0315,-0.0315 0.0746,-0.05465 0.0945,-0.09449 0.0141,-0.02817 -0.01,-0.06461 0,-0.09449 0.0445,-0.133636 0.12599,-0.251984 0.18899,-0.377976 0.0315,-0.063 0.063,-0.125995 0.0945,-0.188989 0.0315,-0.063 0.0774,-0.120661 0.0945,-0.18899 0.0153,-0.06111 -0.0199,-0.129225 0,-0.188986 0.0141,-0.04226 0.0804,-0.05224 0.0945,-0.09449 0.0199,-0.05976 0,-0.125995 0,-0.18899 0,-0.0315 -0.0141,-0.06632 0,-0.09449 0.0199,-0.03984 0.0746,-0.05465 0.0945,-0.0945 0.0141,-0.02817 0,-0.06299 0,-0.09449 0,-0.0315 0,-0.063 0,-0.09449"
       id="path8128"
       inkscape:connector-curvature="0" />
    <path
       style="fill:none;stroke:#000000;stroke-width:0.26458332px;stroke-linecap:butt;stroke-linejoin:miter;stroke-opacity:1"
       d="m 111.97545,70.119789 c -0.41782,0.20891 -0.27837,0.08939 -0.47248,0.283483 -0.0315,0.0315 -0.0574,0.06979 -0.0945,0.0945 -0.0586,0.03907 -0.13039,0.05542 -0.18899,0.09449 -0.10903,0.07269 -0.17445,0.210794 -0.28348,0.283483 -0.0586,0.03907 -0.13038,0.05542 -0.18899,0.09449 -0.0388,0.02588 -0.2576,0.24466 -0.28348,0.283483 -0.0391,0.0586 -0.0554,0.130384 -0.0945,0.188986 -0.059,0.08843 -0.31746,0.31746 -0.37798,0.377979 -0.0315,0.0315 -0.0698,0.05743 -0.0945,0.09449 -0.0391,0.0586 -0.0554,0.130384 -0.0945,0.188986 -0.0247,0.03707 -0.0698,0.05743 -0.0945,0.0945 -0.0391,0.0586 -0.0554,0.130384 -0.0945,0.188987 -0.0247,0.03706 -0.0698,0.05743 -0.0945,0.0945 -0.0391,0.0586 -0.0554,0.130384 -0.0945,0.188986 -0.0247,0.03706 -0.0804,0.05224 -0.0945,0.09449 -0.0199,0.05976 0.0199,0.129225 0,0.188989 -0.0141,0.04226 -0.0804,0.05223 -0.0945,0.09449 -0.0199,0.05976 0.0153,0.127873 0,0.188989 -0.0171,0.06833 -0.0774,0.120658 -0.0945,0.188987 -0.0153,0.06112 0.0199,0.129225 0,0.188989 -0.0141,0.04226 -0.0804,0.05223 -0.0945,0.09449 -0.0199,0.05976 0,0.125992 0,0.188989 0,0.220485 0,0.44097 0,0.661458 0,0.188987 0,0.377976 0,0.566965 0,0.02246 -0.0106,0.356796 0,0.377976 0.3134,0.313396 -0.0445,-0.08909 0.0945,0.188987 0.0199,0.03984 0.0746,0.05465 0.0945,0.0945 0.0141,0.02817 -0.0141,0.06632 0,0.09449 0.0764,0.152844 0.28323,0.141359 0.37797,0.283482 0.0391,0.0586 0.0447,0.139184 0.0945,0.188987 0.0498,0.0498 0.13038,0.05542 0.18899,0.0945 0.0815,0.05436 0.20967,0.209672 0.28348,0.28348 0.0556,0.05558 0.3561,0.334219 0.37797,0.377978 0.0141,0.02817 -0.0223,0.07222 0,0.09449 0.0223,0.02228 0.0663,-0.01408 0.0945,0 0.0797,0.03984 0.11486,0.139571 0.18899,0.188987 0.0476,0.208187 0.19439,0.04995 0.28348,0.0945 0.0398,0.01992 0.0546,0.07457 0.0945,0.09449 0.0375,0.01873 0.26417,-0.01931 0.28348,0 0.0223,0.02228 0.0315,0.09449 0,0.09449 -0.0315,0 -0.0315,-0.09449 0,-0.09449 0.0315,0 0,0.063 0,0.09449"
       id="path8130"
       inkscape:connector-curvature="0" />
    <path
       style="fill:none;stroke:#000000;stroke-width:0.26458332px;stroke-linecap:butt;stroke-linejoin:miter;stroke-opacity:1"
       d="m 110.84152,75.789433 c -0.22123,0.355013 0.2254,0.298233 0.28348,0.472472 0.0199,0.05976 0,0.125992 0,0.188987 0,0.0315 -0.0141,0.06632 0,0.09449 0.0199,0.03984 0.0746,0.05465 0.0945,0.0945 0.0141,0.02817 -0.01,0.06461 0,0.09449 0.0223,0.06682 0.0722,0.122172 0.0945,0.188989 0.0199,0.05976 -0.0282,0.132641 0,0.188987 0.0199,0.03984 0.0746,0.05465 0.0945,0.09449 0.0141,0.02817 -0.0141,0.06632 0,0.0945 0.0199,0.03984 0.0746,0.05465 0.0945,0.09449 0.0282,0.05635 -0.0282,0.132643 0,0.188989 0.0199,0.03984 0.0746,0.05465 0.0945,0.09449 0.0187,0.03747 -0.0193,0.264163 0,0.283483 0.0223,0.02228 0.0722,-0.02228 0.0945,0 0.0223,0.02228 0.0315,0.09449 0,0.09449 -0.0445,0 -0.0547,-0.07457 -0.0945,-0.09449 -0.0563,-0.02817 -0.14444,0.04454 -0.18899,0 -0.0223,-0.02228 0.0223,-0.07222 0,-0.0945 -0.0446,-0.04455 -0.13264,0.02817 -0.18899,0 -0.0398,-0.01992 -0.0546,-0.07457 -0.0945,-0.09449 -0.0513,-0.02564 -0.35212,0.02585 -0.37798,0 -0.0223,-0.02228 0.0223,-0.07222 0,-0.09449 -0.0472,-0.04725 -0.23623,0.04725 -0.28348,0 -0.0223,-0.02228 0.0223,-0.07222 0,-0.09449 -0.0223,-0.02228 -0.063,0 -0.0945,0 -0.25199,0 -0.50397,0 -0.75596,0"
       id="path8142"
       inkscape:connector-curvature="0" />
    <text
       xml:space="preserve"
       style="font-style:normal;font-weight:normal;font-size:2.11666656px;line-height:1.25;font-family:sans-serif;letter-spacing:0px;word-spacing:0px;fill:#000000;fill-opacity:1;stroke:none;stroke-width:0.26458332"
       x="117.6073"
       y="69.17485"
       id="text8146"><tspan
         sodipodi:role="line"
         id="tspan8144"
         x="117.6073"
         y="69.17485"
         style="stroke-width:0.26458332">Force</tspan></text>
    <text
       xml:space="preserve"
       style="font-style:normal;font-weight:normal;font-size:2.11666656px;line-height:1.25;font-family:sans-serif;letter-spacing:0px;word-spacing:0px;fill:#000000;fill-opacity:1;stroke:none;stroke-width:0.26458332"
       x="102.05357"
       y="74.561012"
       id="text8150"><tspan
         sodipodi:role="line"
         id="tspan8148"
         x="102.05357"
         y="74.561012"
         style="stroke-width:0.26458332">Speed</tspan></text>
    <text
       xml:space="preserve"
       style="font-style:normal;font-weight:normal;font-size:2.11666656px;line-height:1.25;font-family:sans-serif;letter-spacing:0px;word-spacing:0px;fill:#000000;fill-opacity:1;stroke:none;stroke-width:0.26458332"
       x="82.115326"
       y="59.347469"
       id="text8154"><tspan
         sodipodi:role="line"
         id="tspan8152"
         x="82.115326"
         y="59.347469"
         style="stroke-width:0.26458332">Armatures </tspan><tspan
         sodipodi:role="line"
         x="82.115326"
         y="61.993301"
         style="stroke-width:0.26458332"
         id="tspan8156">resistance</tspan></text>
    <text
       xml:space="preserve"
       style="font-style:normal;font-weight:normal;font-size:2.11666656px;line-height:1.25;font-family:sans-serif;letter-spacing:0px;word-spacing:0px;fill:#000000;fill-opacity:1;stroke:none;stroke-width:0.26458332"
       x="97.045387"
       y="59.347473"
       id="text8160"><tspan
         sodipodi:role="line"
         id="tspan8158"
         x="97.045387"
         y="59.347473"
         style="stroke-width:0.26458332">Armatures</tspan><tspan
         sodipodi:role="line"
         x="97.045387"
         y="61.993305"
         style="stroke-width:0.26458332"
         id="tspan8162">inductance</tspan></text>
    <ellipse
       style="opacity:1;fill:none;fill-opacity:0.98913042;fill-rule:nonzero;stroke:#0000ff;stroke-width:0.229;stroke-miterlimit:4;stroke-dasharray:none;stroke-dashoffset:0;stroke-opacity:1"
       id="path8164"
       cx="78.713539"
       cy="63.977676"
       rx="0.8504464"
       ry="0.75595242" />
    <ellipse
       style="opacity:1;fill:none;fill-opacity:0.98913042;fill-rule:nonzero;stroke:#0000ff;stroke-width:0.229;stroke-miterlimit:4;stroke-dasharray:none;stroke-dashoffset:0;stroke-opacity:1"
       id="path8164-8"
       cx="78.524551"
       cy="84.104912"
       rx="0.8504464"
       ry="0.75595242" />
    <path
       style="fill:none;stroke:#0000ff;stroke-width:0.26499999;stroke-linecap:butt;stroke-linejoin:miter;stroke-miterlimit:4;stroke-dasharray:none;stroke-opacity:1;marker-end:url(#Arrow1Lend)"
       d="m 78.524551,65.86756 c -1.480302,2.519773 -2.960416,5.039224 -2.960533,7.685318 -1.17e-4,2.646095 1.480225,5.41792 2.960533,8.189681"
       id="path8181"
       inkscape:connector-curvature="0"
       inkscape:path-effect="#path-effect8183"
       inkscape:original-d="m 78.524551,65.86756 c -1.480221,2.519821 -2.960334,5.039272 -4.441027,7.559523 1.480693,2.771721 2.961035,5.543546 4.441027,8.315476"
       sodipodi:nodetypes="ccc" />
    <text
       xml:space="preserve"
       style="font-style:normal;font-weight:normal;font-size:2.11666656px;line-height:1.25;font-family:sans-serif;letter-spacing:0px;word-spacing:0px;fill:#000000;fill-opacity:1;stroke:none;stroke-width:0.26458332"
       x="76.820854"
       y="74.275017"
       id="text8154-3"><tspan
         sodipodi:role="line"
         x="76.820854"
         y="74.275017"
         style="stroke-width:0.26458332"
         id="tspan8156-0">Input voltage</tspan></text>
    <ellipse
       style="opacity:1;fill:none;fill-opacity:0.98913042;fill-rule:nonzero;stroke:#0000ff;stroke-width:0.229;stroke-miterlimit:4;stroke-dasharray:none;stroke-dashoffset:0;stroke-opacity:1"
       id="path8164-87"
       cx="137.9613"
       cy="70.403275"
       rx="0.8504464"
       ry="0.75595242" />
    <g
       id="g9370"
       transform="translate(-2.9482142,0.09449405)">
      <g
         id="g9357">
        <ellipse
           style="opacity:1;fill:none;fill-opacity:0.98913042;fill-rule:nonzero;stroke:#0000ff;stroke-width:0.26499999;stroke-miterlimit:4;stroke-dasharray:none;stroke-dashoffset:0;stroke-opacity:1"
           id="path8934"
           cx="173.8123"
           cy="75.127968"
           rx="2.6458333"
           ry="2.4568453" />
        <path
           style="fill:none;stroke:#0000ff;stroke-width:0.26499999;stroke-linecap:butt;stroke-linejoin:miter;stroke-miterlimit:4;stroke-dasharray:none;stroke-opacity:1;marker-end:url(#Arrow1Mend)"
           d="m 79.228711,100.05577 c 0,1.62562 0,3.25151 0,4.87766"
           id="path8936"
           inkscape:connector-curvature="0"
           inkscape:path-effect="#path-effect8938"
           inkscape:original-d="m 79.228711,100.05577 c 2.64e-4,1.62562 2.64e-4,3.25151 0,4.87766"
           transform="matrix(1,0,0,0.92885042,94.555472,-20.284348)" />
        <path
           style="fill:none;stroke:#0000ff;stroke-width:0.26458332px;stroke-linecap:butt;stroke-linejoin:miter;stroke-opacity:1"
           d="m 153.59067,64.166661 c 0.66145,-0.0315 1.32216,-0.09449 1.98436,-0.09449 0.0445,0 0.0547,0.07457 0.0945,0.0945 0.0756,0.0378 0.20788,-0.0378 0.28348,0 0.0398,0.01992 0.0522,0.08041 0.0945,0.09449 0.0479,0.01595 0.58421,0 0.66146,0 0.0315,0 0.063,0 0.0945,0 0.0315,0 0.0663,-0.01408 0.0945,0 0.0398,0.01992 0.0522,0.08041 0.0945,0.09449 0.0598,0.01992 0.126,0 0.18899,0 0.15749,0 0.31498,0 0.47247,0 0.063,0 0.12787,-0.01527 0.18899,0 0.0683,0.01709 0.12217,0.07222 0.18899,0.0945 0.0299,0.0099 0.063,0 0.0945,0 0.063,0 0.126,0 0.18899,0 0.28348,0 0.56696,0 0.85045,0 0.25198,0 0.50397,0 0.75595,0 0.0621,0 0.23017,-0.01778 0.28348,0 0.0668,0.02228 0.11952,0.08291 0.18899,0.09449 0.12428,0.02072 0.25198,0 0.37798,0 0.12599,0 0.25198,0 0.37797,0 0.47247,0 0.94494,0 1.41741,0 0.31498,0 0.62996,0 0.94494,0 0.0774,0 0.41125,0.0204 0.47247,0 0.0668,-0.02228 0.12217,-0.07222 0.18899,-0.09449 0.0299,-0.01 0.063,0 0.0945,0 0.0791,0 0.40062,0.01797 0.47248,0 0.0683,-0.01709 0.12217,-0.07222 0.18898,-0.0945 0.0299,-0.0099 0.063,0 0.0945,0 0.18899,0 0.37797,0 0.56696,0 0.0945,0 0.19181,0.02291 0.28348,0 0.0683,-0.01709 0.12218,-0.07222 0.18899,-0.09449 0.0598,-0.01992 0.12599,0 0.18899,0 0.15749,0 0.31498,0 0.47247,0 0.50397,0 1.00794,0 1.5119,0 0.0657,0 0.4383,0.01709 0.47248,0 0.23353,-0.116766 -0.0326,-0.09449 0.18898,-0.09449 0.11029,0 0.49325,0.01841 0.56697,0 0.0683,-0.01709 0.12066,-0.07741 0.18899,-0.0945 0.0611,-0.01527 0.12599,0 0.18898,0 0.18899,0 0.37798,0 0.56697,0 0.56696,0 1.13393,0 1.70089,0 0.0494,0 0.35313,0.01244 0.37798,0 0.0398,-0.01992 0.0547,-0.07457 0.0945,-0.09449 0.0342,-0.01709 0.40675,0 0.47247,0 0.063,0 0.12599,0 0.18899,0 0.0315,0 0.0945,-0.0315 0.0945,0 0,0.116766 -0.13251,0.09449 -0.18898,0.09449"
           id="path9282"
           inkscape:connector-curvature="0" />
        <path
           style="fill:none;stroke:#0000ff;stroke-width:0.26458332px;stroke-linecap:butt;stroke-linejoin:miter;stroke-opacity:1"
           d="m 173.151,64.072171 c 0.22046,0.15749 0.45568,0.296137 0.66138,0.472471 0.0239,0.0205 0,0.063 0,0.09449 0,0.0315 0.01,0.06461 0,0.09449 -0.0223,0.06682 -0.0722,0.122171 -0.0945,0.188989 -0.0299,0.08964 0.0299,0.193836 0,0.283483 -0.0141,0.04226 -0.0804,0.05223 -0.0945,0.09449 -0.0299,0.08965 0,0.188989 0,0.283482 0,0.157491 0,0.314982 0,0.472469 0,0.04941 0.0124,0.353132 0,0.377979 -0.0199,0.03984 -0.0746,0.05465 -0.0945,0.09449 -0.0297,0.05939 0.0297,0.318585 0,0.377976 -0.0199,0.03984 -0.0746,0.05465 -0.0945,0.09449 -0.0124,0.02484 0,0.328565 0,0.377976 0,0.283483 0,0.566965 0,0.850448 0,0.976439 0,1.952876 0,2.929316 0,0.314978 0,0.629959 0,0.94494 0,0.0315 0,0.063 0,0.09449 0,0.0315 -0.0223,0.07222 0,0.09449 0.0223,0.02228 0.0722,0.02228 0.0945,0 0.0223,-0.02228 -0.0182,-0.120171 0,-0.09449 0.10053,0.141496 0.17021,0.302556 0.25531,0.453834"
           id="path9284"
           inkscape:connector-curvature="0" />
        <path
           style="fill:none;stroke:#0000ff;stroke-width:0.24806768px;stroke-linecap:butt;stroke-linejoin:miter;stroke-opacity:1"
           d="m 173.78767,77.187723 c 0.0298,0.388195 0.0287,0.776075 0.0287,1.164323 0,0.02724 0.0102,0.05586 0,0.0817 -0.0227,0.05777 -0.0734,0.10563 -0.0961,0.163401 -0.0192,0.04901 0,0.343309 0,0.408501 0,0.190635 0,0.381269 0,0.571902 0,0.05447 0,0.108933 0,0.163402 0,0.02724 0.0143,0.05734 0,0.0817 -0.0202,0.03445 -0.0759,0.04725 -0.0961,0.0817 -0.0146,0.02484 0,0.270384 0,0.326801 0,0.190633 0,0.381266 0,0.571902 0,0.0368 0.0146,0.220234 0,0.245101 -0.0202,0.03445 -0.0758,0.04725 -0.0961,0.0817 -0.0143,0.02436 0,0.05446 0,0.0817 0,0.05447 0,0.108934 0,0.163402 0,0.217867 0,0.435734 0,0.653602 0,0.0368 0.0146,0.220237 0,0.2451 -0.0202,0.03445 -0.0817,0.04516 -0.0961,0.0817 -0.0177,0.04518 0,0.407926 0,0.490202 0,0.05791 0.0124,0.469079 0,0.490203 -0.0202,0.03445 -0.0758,0.04725 -0.0961,0.0817 -0.0124,0.02111 0,0.432291 0,0.490202 0,0.02724 0,0.05447 0,0.0817 0,0.02724 0.0227,0.06244 0,0.0817 -0.0227,0.01926 -0.0641,0 -0.0961,0"
           id="path9286"
           inkscape:connector-curvature="0" />
        <path
           style="fill:none;stroke:#0000ff;stroke-width:0.26458332px;stroke-linecap:butt;stroke-linejoin:miter;stroke-opacity:1"
           d="m 153.63234,84.260003 c 0.62993,0.189005 1.30468,-0.180646 1.93705,5.4e-5 0.0616,0.01762 0.21479,0 0.28348,0 h 0.47247 c 0.063,0 0.12722,0.01236 0.18899,0 0.0977,-0.01953 0.18581,-0.07496 0.28348,-0.09449 0.0618,-0.01236 0.126,0 0.18899,0 h 0.66146 1.88988 2.17336 0.85045 c 0.15749,0 0.31804,0.03088 0.47247,0 0.0691,-0.01381 0.12066,-0.07741 0.18899,-0.0945 0.0611,-0.01527 0.12599,0 0.18899,0 h 0.18899 0.85044 c 0.0819,0 0.32324,0.01826 0.37798,0 0.0668,-0.02228 0.12066,-0.07741 0.18899,-0.09449 0.0857,-0.02141 0.3627,0 0.47247,0 h 1.13393 3.40178 2.92932 c 0.0347,0 0.37417,-0.0038 0.37797,0 0.0223,0.02228 0.0223,0.07222 0,0.09449 -0.0223,0.02228 -0.0993,-0.03113 -0.0945,0"
           id="path9292"
           inkscape:connector-curvature="0"
           sodipodi:nodetypes="ccssccscccsccscsccsccsccc" />
        <text
           xml:space="preserve"
           style="font-style:normal;font-weight:normal;font-size:7.76111126px;line-height:1.25;font-family:sans-serif;letter-spacing:0px;word-spacing:0px;fill:#000000;fill-opacity:1;stroke:none;stroke-width:0.26458332"
           x="177.15111"
           y="75.603104"
           id="text8118-3"><tspan
             sodipodi:role="line"
             id="tspan8116-7"
             x="177.15111"
             y="75.603104"
             style="font-size:2.11666656px;stroke-width:0.26458332">Load</tspan></text>
        <ellipse
           style="opacity:1;fill:none;fill-opacity:0.98913042;fill-rule:nonzero;stroke:#0000ff;stroke-width:0.229;stroke-miterlimit:4;stroke-dasharray:none;stroke-dashoffset:0;stroke-opacity:1"
           id="path8164-7"
           cx="152.92911"
           cy="64.166672"
           rx="0.8504464"
           ry="0.75595242" />
      </g>
      <ellipse
         ry="0.75595242"
         rx="0.8504464"
         cy="84.199409"
         cx="153.11809"
         id="path8164-7-6"
         style="opacity:1;fill:none;fill-opacity:0.98913042;fill-rule:nonzero;stroke:#0000ff;stroke-width:0.229;stroke-miterlimit:4;stroke-dasharray:none;stroke-dashoffset:0;stroke-opacity:1" />
    </g>
  </g>
</svg>
